<mxfile host="65bd71144e">
    <diagram id="V7hC7Ia_DJyM14xFZ34Q" name="Page-1">
        <mxGraphModel dx="1122" dy="217" grid="1" gridSize="10" guides="1" tooltips="1" connect="1" arrows="1" fold="1" page="1" pageScale="1" pageWidth="850" pageHeight="1100" math="0" shadow="0">
            <root>
                <mxCell id="0"/>
                <mxCell id="1" parent="0"/>
                <mxCell id="2" value="10.0.0.2" style="rounded=0;whiteSpace=wrap;html=1;fontSize=21;" parent="1" vertex="1">
                    <mxGeometry x="1020" y="1230" width="110" height="60" as="geometry"/>
                </mxCell>
                <mxCell id="4" value="Source MAC" style="rounded=0;whiteSpace=wrap;html=1;fontSize=21;" parent="1" vertex="1">
                    <mxGeometry x="-370" y="1230" width="170" height="60" as="geometry"/>
                </mxCell>
                <mxCell id="5" value="Destination MAC" style="rounded=0;whiteSpace=wrap;html=1;fontSize=21;" parent="1" vertex="1">
                    <mxGeometry x="-189" y="1230" width="170" height="60" as="geometry"/>
                </mxCell>
                <mxCell id="6" value="11.1.1.2" style="rounded=0;whiteSpace=wrap;html=1;fontSize=21;" parent="1" vertex="1">
                    <mxGeometry x="1120" y="1230" width="110" height="60" as="geometry"/>
                </mxCell>
                <mxCell id="15" value="L4 Header" style="rounded=0;whiteSpace=wrap;html=1;fontSize=21;" parent="1" vertex="1">
                    <mxGeometry x="1230" y="1230" width="150" height="60" as="geometry"/>
                </mxCell>
                <mxCell id="16" value="" style="endArrow=none;html=1;fontSize=26;entryX=0.371;entryY=1.042;entryDx=0;entryDy=0;entryPerimeter=0;endFill=0;startArrow=classic;startFill=1;exitX=0.043;exitY=-0.024;exitDx=0;exitDy=0;exitPerimeter=0;" parent="1" source="60" target="20" edge="1">
                    <mxGeometry width="50" height="50" relative="1" as="geometry">
                        <mxPoint x="698" y="1220" as="sourcePoint"/>
                        <mxPoint x="430" y="750" as="targetPoint"/>
                    </mxGeometry>
                </mxCell>
                <mxCell id="17" value="10.0.0.2" style="rounded=0;whiteSpace=wrap;html=1;fontSize=18;" parent="1" vertex="1">
                    <mxGeometry x="473" y="640" width="150" height="60" as="geometry"/>
                </mxCell>
                <mxCell id="18" value="Source MAC" style="rounded=0;whiteSpace=wrap;html=1;fontSize=18;" parent="1" vertex="1">
                    <mxGeometry x="130" y="640" width="170" height="60" as="geometry"/>
                </mxCell>
                <mxCell id="19" value="Destination MAC" style="rounded=0;whiteSpace=wrap;html=1;fontSize=18;" parent="1" vertex="1">
                    <mxGeometry x="301" y="640" width="170" height="60" as="geometry"/>
                </mxCell>
                <mxCell id="53" style="edgeStyle=none;html=1;exitX=0.364;exitY=0.019;exitDx=0;exitDy=0;exitPerimeter=0;endArrow=none;endFill=0;startArrow=classic;startFill=1;" parent="1" source="20" edge="1">
                    <mxGeometry relative="1" as="geometry">
                        <mxPoint x="678" y="210" as="targetPoint"/>
                    </mxGeometry>
                </mxCell>
                <mxCell id="20" value="11.1.1.2" style="rounded=0;whiteSpace=wrap;html=1;fontSize=18;" parent="1" vertex="1">
                    <mxGeometry x="623" y="640" width="150" height="60" as="geometry"/>
                </mxCell>
                <mxCell id="23" value="Payload" style="rounded=0;whiteSpace=wrap;html=1;fontSize=21;" parent="1" vertex="1">
                    <mxGeometry x="1380" y="1230" width="150" height="60" as="geometry"/>
                </mxCell>
                <mxCell id="29" value="L4 Header" style="rounded=0;whiteSpace=wrap;html=1;fontSize=18;" parent="1" vertex="1">
                    <mxGeometry x="773" y="640" width="150" height="60" as="geometry"/>
                </mxCell>
                <mxCell id="30" value="Payload" style="rounded=0;whiteSpace=wrap;html=1;fontSize=18;" parent="1" vertex="1">
                    <mxGeometry x="930" y="640" width="143" height="60" as="geometry"/>
                </mxCell>
                <mxCell id="36" value="10.0.0.2" style="rounded=0;whiteSpace=wrap;html=1;fontSize=18;" parent="1" vertex="1">
                    <mxGeometry x="482.5" y="130" width="101" height="60" as="geometry"/>
                </mxCell>
                <mxCell id="39" value="11.1.1.2" style="rounded=0;whiteSpace=wrap;html=1;fontSize=18;" parent="1" vertex="1">
                    <mxGeometry x="583.5" y="130" width="121" height="60" as="geometry"/>
                </mxCell>
                <mxCell id="40" value="ESP Header&lt;br style=&quot;font-size: 18px;&quot;&gt;(SPI 0x10203040)" style="rounded=0;whiteSpace=wrap;html=1;fontSize=18;" parent="1" vertex="1">
                    <mxGeometry x="704.5" y="130" width="157" height="60" as="geometry"/>
                </mxCell>
                <mxCell id="41" value="L4 Header&lt;br style=&quot;font-size: 18px;&quot;&gt;(Encrypted)" style="rounded=0;whiteSpace=wrap;html=1;fontSize=18;" parent="1" vertex="1">
                    <mxGeometry x="861.5" y="130" width="142" height="60" as="geometry"/>
                </mxCell>
                <mxCell id="42" value="Payload&lt;br style=&quot;font-size: 18px;&quot;&gt;(Encrypted)" style="rounded=0;whiteSpace=wrap;html=1;fontSize=18;" parent="1" vertex="1">
                    <mxGeometry x="1003.5" y="130" width="150" height="60" as="geometry"/>
                </mxCell>
                <mxCell id="47" value="&lt;font style=&quot;font-size: 21px&quot;&gt;ipTunnelRule&lt;br&gt;(Tunnel ID 3)&lt;br&gt;&lt;br&gt;&lt;u&gt;Match:&lt;br&gt;&lt;/u&gt;Tunnel ID 3&lt;br&gt;&lt;br&gt;&lt;u&gt;Tunnel:&lt;/u&gt;&lt;br&gt;IPSec Decryption&lt;br&gt;Transport&lt;br&gt;AuthKey&lt;br&gt;EncKey&lt;br&gt;&lt;br&gt;&lt;u&gt;nextAction&lt;br&gt;&lt;/u&gt;FORWARD&lt;br&gt;&lt;/font&gt;" style="whiteSpace=wrap;html=1;" parent="1" vertex="1">
                    <mxGeometry x="310" y="230" width="299" height="390" as="geometry"/>
                </mxCell>
                <mxCell id="49" value="Inner Source&lt;br style=&quot;font-size: 18px;&quot;&gt;Mac" style="rounded=0;whiteSpace=wrap;html=1;fontSize=18;" parent="1" vertex="1">
                    <mxGeometry x="242.5" y="130" width="120" height="60" as="geometry"/>
                </mxCell>
                <mxCell id="50" value="Inner Dest&amp;nbsp;&lt;br style=&quot;font-size: 18px;&quot;&gt;MAC" style="rounded=0;whiteSpace=wrap;html=1;fontSize=18;" parent="1" vertex="1">
                    <mxGeometry x="362.5" y="130" width="120" height="60" as="geometry"/>
                </mxCell>
                <mxCell id="54" value="&lt;font style=&quot;font-size: 23px&quot;&gt;Tunnel ID 3 &lt;br&gt;Match&lt;/font&gt;" style="text;html=1;align=center;verticalAlign=middle;resizable=0;points=[];autosize=1;strokeColor=none;fillColor=none;" parent="1" vertex="1">
                    <mxGeometry x="758" y="380" width="130" height="40" as="geometry"/>
                </mxCell>
                <mxCell id="55" value="&lt;font style=&quot;font-size: 21px&quot;&gt;ipTunnelRule&lt;br&gt;(Tunnel ID 4)&lt;br&gt;&lt;br&gt;&lt;u&gt;Match:&lt;br&gt;&lt;/u&gt;Tunnel ID 3&lt;br&gt;&lt;br&gt;&lt;u&gt;Tunnel:&lt;/u&gt;&lt;br&gt;GENEVE Encap&lt;br&gt;Inner SMAC 0x102030405060&lt;br&gt;Inner DMAC 0x605040302010&lt;br&gt;Outer SIP: 1.1.1.1&lt;br&gt;Outer DIP: 2.2.2.2&lt;br&gt;VNI: 250&lt;br&gt;&lt;br&gt;&lt;u&gt;nextAction&lt;br&gt;&lt;/u&gt;RECIRCULATE&lt;br&gt;&lt;/font&gt;" style="whiteSpace=wrap;html=1;" parent="1" vertex="1">
                    <mxGeometry x="250" y="740" width="359" height="440" as="geometry"/>
                </mxCell>
                <mxCell id="56" value="&lt;font style=&quot;font-size: 23px&quot;&gt;Tunnel ID 4 Match&lt;/font&gt;" style="text;html=1;align=center;verticalAlign=middle;resizable=0;points=[];autosize=1;strokeColor=none;fillColor=none;strokeWidth=5;" parent="1" vertex="1">
                    <mxGeometry x="704.5" y="890" width="200" height="20" as="geometry"/>
                </mxCell>
                <mxCell id="57" value="Outer Source IP:&lt;br&gt;1.1.1.1" style="rounded=0;whiteSpace=wrap;html=1;fontSize=21;" parent="1" vertex="1">
                    <mxGeometry x="-19" y="1230" width="170" height="60" as="geometry"/>
                </mxCell>
                <mxCell id="58" value="Outer Destination IP:&lt;br&gt;2.2.2.2" style="rounded=0;whiteSpace=wrap;html=1;fontSize=21;" parent="1" vertex="1">
                    <mxGeometry x="152.5" y="1230" width="207.5" height="60" as="geometry"/>
                </mxCell>
                <mxCell id="59" value="UDP Header&lt;br style=&quot;font-size: 17px;&quot;&gt;Source &amp;amp; Dest Port:&lt;br style=&quot;font-size: 17px;&quot;&gt;6081" style="rounded=0;whiteSpace=wrap;html=1;fontSize=17;" parent="1" vertex="1">
                    <mxGeometry x="360" y="1230" width="170" height="60" as="geometry"/>
                </mxCell>
                <mxCell id="60" value="Source MAC&lt;br&gt;0x102030405060" style="rounded=0;whiteSpace=wrap;html=1;fontSize=18;" parent="1" vertex="1">
                    <mxGeometry x="680" y="1230" width="170" height="60" as="geometry"/>
                </mxCell>
                <mxCell id="61" value="GENEVE&lt;br&gt;VNI 250" style="rounded=0;whiteSpace=wrap;html=1;fontSize=17;" parent="1" vertex="1">
                    <mxGeometry x="530" y="1230" width="150" height="60" as="geometry"/>
                </mxCell>
                <mxCell id="62" value="Destinatino MAC&lt;br&gt;0x605040302010" style="rounded=0;whiteSpace=wrap;html=1;fontSize=18;" parent="1" vertex="1">
                    <mxGeometry x="850" y="1230" width="170" height="60" as="geometry"/>
                </mxCell>
            </root>
        </mxGraphModel>
    </diagram>
</mxfile>